<svg xmlns="http://www.w3.org/2000/svg" width="16" height="16" fill="none"><path fill="#2D3440" fill-rule="evenodd" d="M9 1.667C9 1.298 9.298 1 9.667 1h2.666a2 2 0 0 1 2 2v9.333a2 2 0 0 1-2 2H9.667a.667.667 0 1 1 0-1.333h2.666a.666.666 0 0 0 .667-.667V3a.666.666 0 0 0-.667-.667H9.667A.667.667 0 0 1 9 1.667ZM5.862 3.862c.26-.26.682-.26.943 0l3.329 3.329a.69.69 0 0 1 .129.177.664.664 0 0 1-.13.775L6.806 11.47a.667.667 0 1 1-.943-.942l2.195-2.196h-6.39a.667.667 0 1 1 0-1.333h6.39L5.862 4.805a.667.667 0 0 1 0-.943Z" clip-rule="evenodd"/></svg>