<svg xmlns="http://www.w3.org/2000/svg" width="137" height="56" fill="none"><path fill="#2D3440" d="M52.79 37.565a3.45 3.45 0 0 0-1.914.331s-2.671 2.245-15.885-.34c-9.714-1.905-14.763-1.708-14.763-1.708s1.63-11.179 1.184-14.309a.895.895 0 0 0-.934-.814c-.971 0-1.559.376-1.559.894.084 2.114.01 4.23-.222 6.332a5.362 5.362 0 0 1-2.154 2.69 5.325 5.325 0 0 1-3.34.816c-4.23-.295-5.12-3.354-5.494-5.437-.374-2.084-.587-7.906.526-10.285 0 0 6.375.223 10.382-3.21 4.006-3.435 3.757-6.404 1.86-7.674-1.896-1.27-6.34-1.046-9.75 2.084a17.329 17.329 0 0 0-4.523 6.26S1.191 12.122 2.34 6.863c1.22-5.491 8.69-4.847 8.69-4.847 1.559.304 1.63.447 2.146-.072.517-.518.89-1.86-1.558-1.94C9.169-.076 1.824 1.139.417 6.04c-1.505 5.214 1.273 8.944 5.004 9.525 0 0-2.04 9.033.48 13.504a7.946 7.946 0 0 0 3.163 3.37 7.897 7.897 0 0 0 4.495 1.03c1.47 0 4.07-.822 4.808-2.012 0 0-.347 3.202-.64 4.364 0 0-6.18-.08-8.112.895-3.286 1.744-2.6 5.83-1.336 7.28 1.069 1.234 4.283 1.904 6.607.804a8.86 8.86 0 0 0 3.342-2.812 8.912 8.912 0 0 0 1.6-4.074c3.76-.194 7.526.216 11.156 1.216 5.494 1.646 13.143 3.184 15.44 3.184 2.297 0 7.123-.662 7.417-2.584.16-1.27-.312-1.932-1.05-2.165ZM14.12 7.677s2.92-2.236 4.319-.84a1.927 1.927 0 0 1 .08 2.521c-.588.77-2.137 3.202-9.492 4.41 0 0 2.315-4.079 5.093-6.091Zm.24 34.798s-4.033 2.21-4.452-.787a2.829 2.829 0 0 1 .161-1.874 2.812 2.812 0 0 1 1.3-1.354c.703-.35 1.665-.787 5.859-.635a5.67 5.67 0 0 1-.837 2.696 5.638 5.638 0 0 1-2.03 1.954Z"/><path fill="#2D3440" d="M65.514 21.226v6.162a5.04 5.04 0 0 1-.765 2.262c-.274.495-.63.94-1.051 1.315-.472.412-.784-.51-.962-.894-1.237-2.603-.64-6.09-.16-8.818.223-1.306-2.413-.966-2.618.197a26.425 26.425 0 0 0-.49 7.074 1.659 1.659 0 0 0-1.193.652c-.454.975-1.78 4.213-3.41 2.916-1.175-.894-1.3-3.345-1.425-4.713a13.91 13.91 0 0 1 .73-5.599c-.053.152 1.016-2.53 1.487-1.529a3.26 3.26 0 0 1-.543 2.8c-1.397 1.055.775 1.493 1.62.849 1.604-1.207 2.672-5.107-.061-5.572-3.09-.518-4.844 2.612-5.494 5.098a16.283 16.283 0 0 0-.445 4.364c-.428.752-1.87 3.166-2.716 3.578-.997.518-.98-.206-.944-.671.036-.465.48-4.606.721-7.396a5.18 5.18 0 0 0-.445-3.264c-.383-.778-3.562-2.522-6.358.75a10.665 10.665 0 0 0-2.742 6.261c-.187.376-.392.778-.632 1.216-1.336 2.46-3.019 3.497-3.615 1.789-.6-1.78-.828-3.664-.668-5.536A34.512 34.512 0 0 0 37.84 14.01c1.336-5.956 1.087-8.917.366-9.417-.722-.501-3.785-1.735-5.628 5.59a47.93 47.93 0 0 0-1.416 15.99 38.911 38.911 0 0 1-1.095 2.173c-1.335 2.46-3.01 3.497-3.615 1.789a13.687 13.687 0 0 1-.632-5.536 34.51 34.51 0 0 0 4.506-10.509c1.38-6.036 1.104-8.997.382-9.497-.72-.501-3.784-1.735-5.618 5.59-1.834 7.324-2.2 15.31-.445 20.676 0 0 .961 3.023 2.76 2.8 1.487-.189 3.259-1.655 4.3-4.392.118.538.264 1.07.437 1.592 0 0 .961 3.023 2.76 2.8 1.22-.153 2.671-1.181 3.687-3.06.632 1.637 1.994 2.988 3.748 2.684 2.377-.43 2.867-1.727 2.867-1.727s-.044 2.129 1.478 2.129c1.354 0 2.431-.796 3.5-2.826.365-.689.578-1.091.694-1.324.312 1.923 1.104 3.631 2.671 4.32 2.672 1.163 5.004-1.047 6.376-3.229a3.857 3.857 0 0 0 2.19 2.343 3.325 3.325 0 0 0 3.366-.831v3.148a2.28 2.28 0 0 0-1.38.375 10.47 10.47 0 0 0-3.073 4.222 10.515 10.515 0 0 0-.658 5.187 2.898 2.898 0 0 0 1.473 2.298 2.865 2.865 0 0 0 2.72.036c2.76-1.207 3.18-5.366 3.41-7.906.562-6.108.126-12.467.126-18.593 0-1.127-2.583-.6-2.583.322ZM26.933 11.21c.614-2.37 1.184-3.318 1.78-3.318.597 0 .829.635.41 2.683a52.603 52.603 0 0 1-3.641 11.402s.837-8.389 1.451-10.767Zm7.497 0c.615-2.37 1.184-3.318 1.736-3.318.553 0 .838.635.419 2.683s-1.78 7.709-3.642 11.402c0 0 .89-8.389 1.487-10.767Zm11.45 11.152c-.07.519-.409 3.836-.89 5.625-.48 1.789-.81 2.424-2.252 3.04-1.443.618-2.173-1.27-2.173-1.27-1.024-2.861.347-5.365 1.487-7.082 1.14-1.717 2.288-1.87 2.947-1.789a1.21 1.21 0 0 1 .905 1.002c.023.158.015.319-.023.474ZM65.444 38.46a16.242 16.242 0 0 1-1.407 6.984c-.623.125-.89-.107-1.104-1.109a9.633 9.633 0 0 1 0-2.906 8.06 8.06 0 0 1 2.475-4.606c.045.563.045 1.109.036 1.637ZM82.183 18.695a9.59 9.59 0 0 1-3.077-2.172 9.64 9.64 0 0 1-2.007-3.194c-1.14-3.416 2.6-5.938 5.582-5.786 2.983.152 4.577 3.237 4.452 6-.053.976-.667 3.176-1.87 2.03a5.692 5.692 0 0 1-1.389-3.245c-.178-1.083-2.76-.439-2.582.697.517 3.273 4.025 6.877 7.034 3.452a6.585 6.585 0 0 0 1.259-5.586 6.584 6.584 0 0 0-1.283-2.641 6.55 6.55 0 0 0-2.3-1.816 9.08 9.08 0 0 0-6.286-.122 9.126 9.126 0 0 0-4.87 3.994c-2.431 4.338 2.448 8.577 5.903 10.124 5.547 2.978 5.752 12.565-1.62 12.628a7.405 7.405 0 0 1-4.207-1.431 7.456 7.456 0 0 1-2.64-3.586c-.508-1.503-.25-6.752 1.78-7.155 1.612-.313 1.176-1.788-.4-1.511-3.304.644-4.524 4.927-4.203 7.923.516 4.776 4.968 7.45 9.465 7.414a8.497 8.497 0 0 0 5.502-1.82 8.564 8.564 0 0 0 3.073-4.932 8.394 8.394 0 0 0-.991-5.597 8.335 8.335 0 0 0-4.325-3.668Z"/><path fill="#2D3440" d="M98.727 32.906c-2.538-1.395-1.087-6.77-.704-8.836.25-1.333 1.38-3.39-.436-3.846-2.128-.518-4.657 1.512-6.482 3.452a45.52 45.52 0 0 1 .49-6.69 13.905 13.905 0 0 0 6.392-6.608c1.158-2.325 1.728-7.155-2.19-5.742-3.562 1.252-4.781 5.366-5.894 8.666a26.925 26.925 0 0 0-.971 3.909c-.355.15-.718.28-1.086.393-1.478.465-1.282 1.261.213.796l.722-.233c-.713 5.018-.232 10.276.222 15.204 0 .483 2.671 0 2.573-.698-.195-2.2-.364-4.4-.436-6.582.215-.063.41-.184.561-.349a20.091 20.091 0 0 1 2.743-2.835c.267-.241.543-.465.819-.68l.41-.303c.596-.474.712-.483.338 0-.14.852-.324 1.697-.552 2.53-.49 2.683-1.897 7.951 1.193 9.641.668.34 3.072-.661 2.075-1.19Zm-5.78-21.562c.277-.796.642-1.583.98-2.352.419-.966 1.54-4.266 2.35-2.683.65 1.26-.373 3.327-.827 4.534a10.63 10.63 0 0 1-3.562 4.74c.26-1.435.614-2.851 1.06-4.24Z"/><path fill="#2D3440" d="M108.298 26.637c0-2.943-.329-6.717-3.828-7.03-3.838-.348-5.343 3.685-5.396 6.699a.53.53 0 0 0 .311.51c0 2.817.677 6.492 4.016 6.43 3.722-.054 4.897-3.318 4.897-6.61Zm-4.452 4.9c-2.172-.894-1.976-4.659-1.834-6.474a.485.485 0 0 0-.214-.474c.268-1.789.962-4.472 2.547-3.14 1.264 1.092 1.291 3.712 1.353 5.223.054 1.056-.08 5.527-1.843 4.866h-.009ZM136.346 42.78c-.997-2.577-3.188-3.578-5.601-3.685a10.03 10.03 0 0 0-1.006-1.86c-3.481-5.179-11.744-4.472-17.345-1.79 0-.813-.08-1.627-.116-2.44a6.486 6.486 0 0 0 3.249-.58 6.512 6.512 0 0 0 2.548-2.104c1.487-2.137 1.273-5.93.686-8.326-.552-2.254-2.743-1.851-4.39-1.1a6.55 6.55 0 0 0-1.656 1.127c0-.6.098-1.207.142-1.789.098-1.377-2.529-1.028-2.618.188-.409 5.536-.267 11.054-.391 16.58a13.197 13.197 0 0 0-3.666 4.839 13.245 13.245 0 0 0-1.116 5.974c0 2.03 1.719 3.578 3.562 2.129 2.573-1.986 3.357-5.93 3.713-8.944.146-1.345.193-2.699.142-4.05a12.427 12.427 0 0 1 13.534-.09 6.203 6.203 0 0 1 2.022 2.414c-1.424.256-2.807.701-4.114 1.324-1.523.733-3.784 2.468-3.677 4.41a2.687 2.687 0 0 0 .546 1.703c.372.488.898.834 1.493.979a.795.795 0 0 0 .258.08c5.467.895 9.536-2.352 8.753-6.922 2.671 1.458 3.659 4.839 2.715 7.745-2.128 6.529-10.32 7.987-15.092 3.622-.517-.465-2.84.519-2.431.895 6.892 6.322 24.059.474 19.856-10.33Zm-26.659-1.584a13.915 13.915 0 0 1-1.015 4.597c-.222.492-.463.966-.721 1.431 0 0-.231.054-.276-.644a12.91 12.91 0 0 1 2.084-7.056c-.018.554-.036 1.118-.072 1.672Zm2.787-15.972a.698.698 0 0 0 .134-.152 12.518 12.518 0 0 1 1.692-2.245 7.011 7.011 0 0 1 1.611-1.36c.285.143.579.895.686 1.905.276 2.487.392 9.033-3.508 8.416a2.132 2.132 0 0 0-.891.152c-.009-2.272.116-4.49.276-6.716Zm11.647 21.23h-.054c-1.495-.357-1.335-1.788-1.139-2.754.436-2.262 3.178-3.479 5.44-3.577 1.149 3.22.267 7.074-4.247 6.332Z"/></svg>